<?xml version="1.0" standalone="no"?>
<!DOCTYPE svg PUBLIC "-//W3C//DTD SVG 20010904//EN"
 "http://www.w3.org/TR/2001/REC-SVG-20010904/DTD/svg10.dtd">
<svg version="1.0" xmlns="http://www.w3.org/2000/svg"
 width="2048.000000pt" height="2048.000000pt" viewBox="0 0 2048.000000 2048.000000"
 preserveAspectRatio="xMidYMid meet">
<metadata>
Created by potrace 1.11, written by Peter Selinger 2001-2013
</metadata>
<g transform="translate(0.000000,2048.000000) scale(0.100000,-0.100000)"
fill="#000000" stroke="none">
<path d="M0 10240 l0 -10240 10240 0 10240 0 0 10240 0 10240 -10240 0 -10240
0 0 -10240z m8040 3164 c132 -30 188 -96 175 -209 -11 -101 -242 -1010 -716
-2819 -154 -587 -279 -1070 -277 -1072 3 -2 44 42 92 99 546 636 1121 1046
1671 1193 155 41 252 55 421 61 146 5 168 4 230 -15 182 -56 289 -221 288
-447 0 -153 -42 -298 -271 -954 -259 -743 -301 -929 -353 -1566 -25 -311 -118
-498 -288 -582 -54 -27 -63 -28 -197 -27 -122 0 -148 3 -199 23 -163 64 -234
232 -206 488 25 232 80 436 294 1089 159 485 223 693 272 887 41 164 41 214 0
256 -24 23 -34 26 -99 25 -179 -2 -357 -97 -712 -382 -159 -128 -421 -386
-553 -545 -218 -261 -528 -724 -653 -973 -42 -84 -104 -223 -139 -310 -95
-243 -142 -334 -205 -402 -69 -75 -112 -93 -236 -100 -164 -8 -243 31 -296
146 -35 76 -46 168 -32 281 14 118 1368 5555 1403 5635 41 92 142 187 235 221
52 19 265 19 351 -1z m4322 -35 c261 -56 373 -321 312 -742 -29 -201 -164
-720 -345 -1326 -103 -347 -201 -698 -264 -951 -20 -80 -39 -154 -42 -165 -4
-13 17 1 56 37 364 338 808 583 1212 669 87 19 135 23 289 22 166 0 195 -2
281 -25 234 -63 395 -189 490 -383 62 -127 81 -215 86 -400 4 -131 1 -181 -15
-280 -51 -295 -196 -665 -374 -952 -146 -235 -296 -420 -499 -618 -174 -169
-310 -278 -545 -434 -572 -382 -942 -521 -1281 -482 -112 13 -182 38 -248 89
l-49 39 -36 -56 c-43 -66 -111 -131 -172 -163 -39 -21 -56 -23 -173 -23 -113
0 -138 3 -189 24 -152 61 -223 207 -213 441 4 107 15 157 155 715 168 665 262
1016 536 1990 243 869 352 1267 441 1625 119 474 147 611 190 921 30 222 53
296 109 357 71 78 156 99 288 71z"/>
<path d="M13355 10274 c-184 -27 -365 -97 -612 -235 -233 -130 -421 -261 -785
-547 l-198 -154 -26 -87 c-14 -47 -55 -180 -90 -295 -129 -416 -175 -600 -225
-901 -25 -154 -28 -186 -18 -223 l12 -42 31 19 c52 31 153 67 321 115 669 188
1307 643 1627 1158 194 313 354 822 319 1014 -22 119 -94 172 -242 179 -46 2
-97 1 -114 -1z"/>
</g>
</svg>
