<?xml version="1.0" standalone="no"?>
<!DOCTYPE svg PUBLIC "-//W3C//DTD SVG 20010904//EN"
 "http://www.w3.org/TR/2001/REC-SVG-20010904/DTD/svg10.dtd">
<svg version="1.0" xmlns="http://www.w3.org/2000/svg"
 width="221.000000pt" height="221.000000pt" viewBox="0 0 221.000000 221.000000"
 preserveAspectRatio="xMidYMid meet">
<metadata>
Created by potrace 1.11, written by Peter Selinger 2001-2013
</metadata>
<g transform="translate(0.000000,221.000000) scale(0.100000,-0.100000)"
fill="#000000" stroke="none">
<path d="M0 1105 l0 -1105 1105 0 1105 0 0 1105 0 1105 -1105 0 -1105 0 0
-1105z m884 407 c4 -7 -71 -318 -100 -413 -2 -9 17 4 43 29 57 53 134 92 184
92 68 0 74 -32 29 -165 -16 -49 -30 -104 -30 -122 0 -19 -7 -49 -14 -68 -12
-29 -20 -35 -45 -35 -20 0 -34 7 -41 20 -12 23 -14 16 31 167 18 62 30 116 26
119 -27 28 -164 -104 -218 -211 -19 -38 -42 -73 -50 -78 -25 -16 -49 -1 -49
30 1 41 146 611 160 628 13 16 65 21 74 7z m474 -4 c19 -19 14 -75 -18 -194
-16 -61 -33 -120 -36 -130 -7 -17 -5 -17 17 2 72 64 167 82 215 40 58 -49 24
-176 -71 -272 -67 -68 -145 -108 -196 -101 -20 3 -42 0 -47 -5 -14 -14 -53 -6
-66 14 -13 22 -2 77 69 335 30 109 57 218 61 243 4 25 11 53 16 63 10 20 39
22 56 5z"/>
<path d="M1382 1144 c-85 -42 -116 -78 -136 -158 -9 -38 -15 -70 -13 -73 9 -8
114 38 153 66 75 56 121 181 69 189 -11 1 -44 -9 -73 -24z"/>
</g>
</svg>
